# xmcd
#
# Track frame offsets:
#	150
#	15497
#	31468
#	44865
#	59129
#	75172
#	88695
#	108989
#	120806
#	135121
#	146628
#	161371
#	181318
#	199778
#	217905
#	232282
#
# Disc length: 3274 seconds
#
# Revision: 1
# Processed by: cddbd v1.5.2PL0 Copyright (c) Steve Scherf et al.
# Submitted via: dBpowerAMP V4.0
#
DISCID=d20cc810
DTITLE=Vagn and Vagabonderne - Bedste 1
DYEAR=1999
DGENRE=Pop
TTITLE0=Du lille far og bedste - far
TTITLE1=Hvide Sande
TTITLE2=Farvel
TTITLE3=Du har trådt i mine cirkler
TTITLE4=Et råb i natten
TTITLE5=En skikkelig fyr
TTITLE6=Ud i natten
TTITLE7=Hjemmemandens blues
TTITLE8=Anne Marie
TTITLE9=Vi to er venner
TTITLE10=En bytur
TTITLE11=Planetvalsen
TTITLE12=Himmelexpressen
TTITLE13=Lille kammerat
TTITLE14=Ingenting
TTITLE15=Jeg er zigeuner
EXTD=Vagn and Vagabonderne  -  Bedste I
EXTT0=
EXTT1=
EXTT2=
EXTT3=
EXTT4=
EXTT5=
EXTT6=
EXTT7=
EXTT8=
EXTT9=
EXTT10=
EXTT11=
EXTT12=
EXTT13=
EXTT14=
EXTT15=
PLAYORDER=
